<svg xmlns="http://www.w3.org/2000/svg" viewBox="0 0 19.76 19.76"><defs><style>.cls-1{fill:#515151;}</style></defs><g id="圖層_2" data-name="圖層 2"><g id="圖層_1-2" data-name="圖層 1"><g id="ig_icon" data-name="ig icon"><path id="Path_7" data-name="Path 7" class="cls-1" d="M9.88,19.74c-1.39,0-2.79.05-4.18,0A5.45,5.45,0,0,1,0,14C0,11.28,0,8.54,0,5.81A5.51,5.51,0,0,1,2.63.88,6.21,6.21,0,0,1,5.83,0c2.68,0,5.36,0,8,0a5.73,5.73,0,0,1,4.56,1.91,5.19,5.19,0,0,1,1.28,3.25c.06,3.13.08,6.26,0,9.38a5.31,5.31,0,0,1-5.2,5.15c-1.54.05-3.09,0-4.63,0Zm-8-9.84H1.8c0,1,0,2.09,0,3.14,0,.46.06.93.08,1.39a3.44,3.44,0,0,0,3.26,3.43c2,.14,4,.14,5.92.15a33.33,33.33,0,0,0,3.6-.14,3.29,3.29,0,0,0,3.12-2.73,16.13,16.13,0,0,0,.22-2.3c0-2.56,0-5.13-.13-7.68a3.37,3.37,0,0,0-3.43-3.28h0q-4.53-.07-9.07,0A3.47,3.47,0,0,0,1.89,5.35C1.84,6.87,1.88,8.38,1.88,9.9Z"/><path id="Path_8" data-name="Path 8" class="cls-1" d="M9.84,14.49A4.6,4.6,0,1,1,14.48,10h0A4.64,4.64,0,0,1,9.84,14.49Zm-2.9-4.7a3,3,0,0,0,2.82,3.08h.1a3,3,0,1,0-2.92-3.1v0Z"/><path id="Path_9" data-name="Path 9" class="cls-1" d="M15.12,3.37A1.3,1.3,0,1,1,13.8,4.65h0A1.3,1.3,0,0,1,15.12,3.37Z"/></g></g></g></svg>