<svg xmlns="http://www.w3.org/2000/svg" viewBox="0 0 19.3 19.3"><defs><style>.cls-1{fill:#97766d;}</style></defs><g id="圖層_2" data-name="圖層 2"><g id="圖層_1-2" data-name="圖層 1"><path id="訂單_60_60_2" data-name="訂單 60 60 2" class="cls-1" d="M15.17,6V4.83C15.17,2.16,12.69,0,9.65,0S4.14,2.16,4.14,4.83V6H0V16.29a3.25,3.25,0,0,0,3.45,3h12.4a3.25,3.25,0,0,0,3.45-3V6ZM6.89,4.83A2.61,2.61,0,0,1,9.65,2.41a2.61,2.61,0,0,1,2.76,2.42V6H6.89Zm6.9,4.52a1,1,0,0,1-1-.91,1,1,0,0,1,2.07,0A1,1,0,0,1,13.79,9.35Zm-8.28,0a1,1,0,0,1-1-.91,1,1,0,0,1,1-.9,1,1,0,0,1,1,.9A1,1,0,0,1,5.51,9.35Z"/></g></g></svg>