<svg xmlns="http://www.w3.org/2000/svg" viewBox="0 0 33.6 33.6"><defs><style>.cls-1{fill:#d8b9b1;}</style></defs><g id="圖層_2" data-name="圖層 2"><g id="圖層_1-2" data-name="圖層 1"><path id="新增資料夾按鈕_100" data-name="新增資料夾按鈕 100" class="cls-1" d="M30,0H3.6A3.6,3.6,0,0,0,0,3.6V30a3.6,3.6,0,0,0,3.6,3.6H30A3.6,3.6,0,0,0,33.6,30V3.6A3.6,3.6,0,0,0,30,0ZM27.6,18.9a.9.9,0,0,1-.9.9H19.8v6.9a.9.9,0,0,1-.9.9H14.7a.9.9,0,0,1-.9-.9V19.8H6.9a.9.9,0,0,1-.9-.9V14.7a.9.9,0,0,1,.9-.9h6.9V6.9a.9.9,0,0,1,.9-.9h4.2a.9.9,0,0,1,.9.9v6.9h6.9a.9.9,0,0,1,.9.9Z"/></g></g></svg>