<svg xmlns="http://www.w3.org/2000/svg" viewBox="0 0 24.07 24.07"><defs><style>.cls-1{fill:#cb9e92;}.cls-2{fill:none;}</style></defs><g id="圖層_2" data-name="圖層 2"><g id="圖層_1-2" data-name="圖層 1"><g id="Group_274" data-name="Group 274"><path id="Path_123" data-name="Path 123" class="cls-1" d="M17.82,10.26h0c0,.13.09.29.13.47h0a2,2,0,0,1-1.67,2.33,2,2,0,0,1-1.43-.29A2.28,2.28,0,0,1,13.21,15a2.26,2.26,0,0,1-2.76-.5,2,2,0,0,1-3.65.69h0a3.72,3.72,0,0,1-.21-.39h0c-.16-.34-.28-.68-.43-1.06A6.06,6.06,0,0,1,17.4,9.23C17.56,9.62,17.69,9.87,17.82,10.26Z"/><path id="Path_124" data-name="Path 124" class="cls-1" d="M11.26,18.85a0,0,0,0,1,0,0s0,0,0,0l0,0v0l-.78-1.94a.7.7,0,0,0-1.29.52l.46,1.15A.7.7,0,0,0,10,19.68h.79l0,0h0a.7.7,0,0,0,.35-.68h0Z"/><path id="Rectangle_162" data-name="Rectangle 162" class="cls-1" d="M11.4,15.79h0a.7.7,0,0,1,.91.39l.51,1.27a.69.69,0,0,1-.38.91h0a.7.7,0,0,1-.91-.38L11,16.7A.7.7,0,0,1,11.4,15.79Z"/><path id="Rectangle_163" data-name="Rectangle 163" class="cls-1" d="M15,14.32h0a.7.7,0,0,1,.91.39L16.46,16a.69.69,0,0,1-.38.91h0a.7.7,0,0,1-.91-.38l-.52-1.28A.7.7,0,0,1,15,14.32Z"/><path id="Path_125" data-name="Path 125" class="cls-1" d="M18.73,15.19a.67.67,0,0,0-.55-.21l-.47-1.15a.7.7,0,0,0-1.29.53l.78,1.94v0l0,0s0,0,0,0,0,0,0,0l0,0h0a.68.68,0,0,0,.72.24h.05l0,0h.06l0,0,0,0s0,0,0,0h0l0,0h0l.37-.35A.71.71,0,0,0,18.73,15.19Z"/><path id="Rectangle_164" data-name="Rectangle 164" class="cls-1" d="M13.43,15.59h0a.7.7,0,0,1,.91.38l.52,1.28a.7.7,0,0,1-.39.91h0a.69.69,0,0,1-.9-.39l-.52-1.27A.7.7,0,0,1,13.43,15.59Z"/></g><g id="Ellipse_7" data-name="Ellipse 7"><circle class="cls-2" cx="12.04" cy="12.04" r="12.04"/><path class="cls-1" d="M12,24.07a12,12,0,1,1,12-12A12.05,12.05,0,0,1,12,24.07ZM12,1.23A10.81,10.81,0,1,0,22.84,12,10.82,10.82,0,0,0,12,1.23Z"/></g></g></g></svg>