<svg xmlns="http://www.w3.org/2000/svg" viewBox="0 0 13.14 14.09"><defs><style>.cls-1{fill:#cb9e92;}</style></defs><g id="圖層_2" data-name="圖層 2"><g id="圖層_1-2" data-name="圖層 1"><g id="Group_274" data-name="Group 274"><path id="Path_123" data-name="Path 123" class="cls-1" d="M12,4.66h0c0,.14.09.29.14.47h0A2,2,0,0,1,10.5,7.47a2.07,2.07,0,0,1-1.43-.3A2.26,2.26,0,0,1,7.43,9.44,2.28,2.28,0,0,1,4.67,9a2,2,0,0,1-2.44,1.51A2.09,2.09,0,0,1,1,9.64H1l-.21-.4h0C.65,8.9.53,8.55.38,8.17A6.06,6.06,0,0,1,11.62,3.63C11.78,4,11.91,4.27,12,4.66Z"/><path id="Path_124" data-name="Path 124" class="cls-1" d="M5.48,13.25a0,0,0,0,1,0,0,.1.1,0,0,1,0,0v-.06l-.79-1.93a.69.69,0,0,0-.9-.39.7.7,0,0,0-.39.91l.46,1.14a.7.7,0,0,0,.44,1.24H5l0,0h.11a.69.69,0,0,0,.35-.67v-.08Z"/><path id="Rectangle_162" data-name="Rectangle 162" class="cls-1" d="M5.62,10.2h0a.69.69,0,0,1,.91.38l.52,1.28a.71.71,0,0,1-.39.91h0a.7.7,0,0,1-.91-.39L5.24,11.1A.68.68,0,0,1,5.62,10.2Z"/><path id="Rectangle_163" data-name="Rectangle 163" class="cls-1" d="M9.26,8.72h0a.7.7,0,0,1,.91.39l.52,1.28a.69.69,0,0,1-.39.9h0a.69.69,0,0,1-.91-.38L8.88,9.63A.69.69,0,0,1,9.26,8.72Z"/><path id="Path_125" data-name="Path 125" class="cls-1" d="M13,9.59a.71.71,0,0,0-.55-.21l-.46-1.14a.7.7,0,0,0-1.3.52l.79,1.94v.06l0,0v0l0,0h0a.71.71,0,0,0,.72.24h.15l0,0h0l0,0h0l.05,0h0l.37-.36A.7.7,0,0,0,13,9.59Z"/><path id="Rectangle_164" data-name="Rectangle 164" class="cls-1" d="M7.66,10h0a.69.69,0,0,1,.9.39l.52,1.27a.7.7,0,0,1-.38.91h0a.7.7,0,0,1-.91-.38L7.27,10.9A.7.7,0,0,1,7.66,10Z"/></g></g></g></svg>