<svg xmlns="http://www.w3.org/2000/svg" viewBox="0 0 7.49 7.49"><defs><style>.cls-1{fill:#515151;}</style></defs><g id="圖層_2" data-name="圖層 2"><g id="圖層_1-2" data-name="圖層 1"><path id="Path_219" data-name="Path 219" class="cls-1" d="M5.22,2.37,7.38,3.56a.23.23,0,0,1,.08.3A.24.24,0,0,1,7.38,4L5.21,5.13a.2.2,0,0,0-.09.09L3.93,7.38a.23.23,0,0,1-.3.09.38.38,0,0,1-.09-.09L2.36,5.21a.24.24,0,0,0-.08-.09L.11,3.93A.22.22,0,0,1,0,3.63a.2.2,0,0,1,.09-.09L2.28,2.36a.24.24,0,0,0,.09-.08L3.56.12A.22.22,0,0,1,3.86,0,.2.2,0,0,1,4,.12L5.13,2.28A.2.2,0,0,0,5.22,2.37Z"/></g></g></svg>