<svg xmlns="http://www.w3.org/2000/svg" viewBox="0 0 16.58 16.58"><defs><style>.cls-1{fill:#c19e94;}</style></defs><g id="圖層_2" data-name="圖層 2"><g id="圖層_1-2" data-name="圖層 1"><path id="Icon_awesome-check-circle" data-name="Icon awesome-check-circle" class="cls-1" d="M16.58,8.29A8.29,8.29,0,1,1,8.29,0a8.29,8.29,0,0,1,8.29,8.29ZM7.33,12.68l6.15-6.15a.54.54,0,0,0,0-.76h0L12.73,5A.54.54,0,0,0,12,5h0L7,10,4.61,7.69a.53.53,0,0,0-.75,0h0l-.76.76a.53.53,0,0,0,0,.75h0l3.48,3.48a.53.53,0,0,0,.75,0Z"/></g></g></svg>