<svg xmlns="http://www.w3.org/2000/svg" viewBox="0 0 58.46 55.55"><defs><style>.cls-1{fill:#c4877a;}</style></defs><g id="圖層_2" data-name="圖層 2"><g id="圖層_1-2" data-name="圖層 1"><path class="cls-1" d="M56,23.26A15.75,15.75,0,1,0,36.93,48.31c-2.15,2.07-4.31,4.1-6.46,6.17-1.5,1.45-2,1.39-3.65,0A108.19,108.19,0,0,1,4.5,29.72a29.16,29.16,0,0,1-4.36-11A16.5,16.5,0,0,1,9,1.86,16,16,0,0,1,27.79,4.7c.24.24.53.45.92.79A16.39,16.39,0,0,1,57.17,14,20.38,20.38,0,0,1,56,23.26Z"/><g id="Group_2" data-name="Group 2"><path class="cls-1" d="M55.83,37.84H36.36a2.63,2.63,0,1,1,0-5.25H55.83a2.63,2.63,0,1,1,0,5.25Z"/></g></g></g></svg>