<svg xmlns="http://www.w3.org/2000/svg" viewBox="0 0 19.74 19.76"><defs><style>.cls-1{fill:#515151;}</style></defs><g id="圖層_2" data-name="圖層 2"><g id="圖層_1-2" data-name="圖層 1"><path id="love_icon" data-name="love icon" class="cls-1" d="M9.9,2A5.73,5.73,0,0,1,13.05.1,5.8,5.8,0,0,1,19.7,5a7.59,7.59,0,0,1-.84,4.34,21.51,21.51,0,0,1-3.72,5.39c-1.48,1.62-3.07,3.13-4.63,4.68-.52.51-.71.5-1.26,0a38,38,0,0,1-7.69-8.82A10.62,10.62,0,0,1,.05,6.66a5.92,5.92,0,0,1,3.06-6,5.38,5.38,0,0,1,6.47,1Z"/></g></g></svg>