<svg xmlns="http://www.w3.org/2000/svg" viewBox="0 0 25.05 25"><defs><style>.cls-1{fill:#515151;}</style></defs><g id="圖層_2" data-name="圖層 2"><g id="圖層_1-2" data-name="圖層 1"><path id="Path_1" data-name="Path 1" class="cls-1" d="M25,25H0A11.5,11.5,0,0,1,3.8,15.5c.14-.13.3-.24.45-.37C5.63,14,5.63,14,7.08,15a10.27,10.27,0,0,0,11.28-.33,1.27,1.27,0,0,1,1.79-.06.12.12,0,0,1,.05.05A11.56,11.56,0,0,1,25,25Z"/><path id="Path_2" data-name="Path 2" class="cls-1" d="M12.51,11.44a5.72,5.72,0,1,1,5.75-5.69v0A5.85,5.85,0,0,1,12.51,11.44Z"/></g></g></svg>