<svg xmlns="http://www.w3.org/2000/svg" viewBox="0 0 24.95 25"><defs><style>.cls-1{fill:#515151;}</style></defs><g id="圖層_2" data-name="圖層 2"><g id="圖層_1-2" data-name="圖層 1"><path id="Path_3" data-name="Path 3" class="cls-1" d="M4.08,3.66H0V0C2.12,0,4.21,0,6.28.06,7.54.12,8.12.9,8.17,2.26c0,1.13,0,2.28,0,3.52h1.5c4.23,0,8.47,0,12.71,0,2.09,0,3,1.19,2.28,3-.58,1.54-1.12,3.1-1.7,4.64s-1.08,1.8-2.75,1.81H6.9c-2,0-2.71-.63-2.73-2.46,0-2.56,0-5.11,0-7.67C4.16,4.66,4.11,4.23,4.08,3.66Z"/><path id="Path_4" data-name="Path 4" class="cls-1" d="M22.15,19.35A2.83,2.83,0,1,1,19.3,22.2,3,3,0,0,1,22.15,19.35Z"/><path id="Path_5" data-name="Path 5" class="cls-1" d="M7.49,22.17a2.78,2.78,0,1,1-2.73-2.82h0A2.84,2.84,0,0,1,7.49,22.17Z"/></g></g></svg>